<?xml version="1.0" encoding="utf-8"?>
<!-- Generator: Adobe Illustrator 16.0.0, SVG Export Plug-In . SVG Version: 6.00 Build 0)  -->
<!DOCTYPE svg PUBLIC "-//W3C//DTD SVG 1.1//EN" "http://www.w3.org/Graphics/SVG/1.1/DTD/svg11.dtd">
<svg version="1.1" id="Layer_1" xmlns="http://www.w3.org/2000/svg" xmlns:xlink="http://www.w3.org/1999/xlink" x="0px" y="0px"
	 width="622.47px" height="953.951px" viewBox="0 0 622.47 953.951" enable-background="new 0 0 622.47 953.951"
	 xml:space="preserve">
<polygon fill="#1E1E1E" points="-1674.324,1002.122 -1674.324,922.626 -1638.326,922.626 -1638.326,880.628 -1594.828,880.628 
	-1594.828,798.132 -1634.576,798.132 -1634.576,756.134 -1674.324,756.134 -1674.324,588.143 -1634.576,588.143 -1634.576,547.645 
	-1594.828,547.645 -1594.828,504.147 -1674.324,504.147 -1674.324,463.649 -1716.322,463.649 -1716.322,421.651 -1678.824,421.651 
	-1678.824,381.153 -1716.322,381.153 -1716.322,255.161 -1677.324,255.161 -1676.934,171.059 -1636.767,171.161 -1636.826,132.167 
	-1594.828,132.167 -1594.828,88.669 -1512.333,88.669 -1512.333,48.171 -1305.343,48.171 -1305.343,85.669 -1179.349,85.669 
	-1179.349,124.664 -1136.393,124.893 -1135.851,211.663 -1093.853,214.663 -1093.853,297.159 -1129.851,297.159 -1132.851,420.152 
	-1132.851,628.642 -1179.349,628.642 -1177.849,672.14 -1260.809,672.14 -1261.845,796.634 -1216.847,796.634 -1218.347,879.129 
	-1179.349,879.129 -1179.349,921.127 -1135.851,921.127 -1135.851,1002.122 -1339.841,1002.122 -1339.841,966.125 
	-1468.834,966.125 -1468.834,1002.122 "/>
<polygon display="none" fill="#E9CE9A" points="-1305.343,85.669 -1512.333,85.669 -1512.333,127.664 -1594.828,127.664 
	-1594.828,171.161 -1638.326,171.161 -1638.326,252.157 -1677.324,252.157 -1677.324,378.151 -1639.826,378.151 -1639.826,420.149 
	-1678.824,420.149 -1678.824,463.649 -1594.828,463.649 -1594.828,504.147 -1515.332,504.147 -1515.332,547.642 -1594.828,547.642 
	-1594.828,588.14 -1634.576,588.14 -1634.576,756.134 -1513.832,756.134 -1513.832,796.63 -1549.831,796.63 -1549.831,879.125 
	-1594.828,879.125 -1594.828,922.624 -1638.326,922.624 -1638.326,963.122 -1177.849,963.122 -1177.849,921.127 -1218.347,921.127 
	-1218.347,880.625 -1263.345,880.625 -1263.345,796.634 -1300.843,796.634 -1300.843,670.636 -1261.845,670.636 -1261.845,631.638 
	-1179.349,631.638 -1179.349,588.14 -1137.351,588.14 -1137.351,547.642 -1179.272,547.642 -1179.434,505.645 -1137.351,505.645 
	-1137.351,426.148 -1174.85,426.148 -1174.85,300.155 -1137.351,300.155 -1137.351,211.663 -1174.85,211.663 -1174.85,129.167 
	-1305.184,129.167 "/>
<polygon fill="#E9CE9A" points="-1174.85,211.663 -1174.85,426.148 -1137.351,426.148 -1137.351,505.645 -1179.434,505.645 
	-1179.434,546.149 -1386.338,546.149 -1386.338,339.153 -1342.841,339.153 -1342.841,294.155 -1260.348,294.155 -1260.348,253.657 
	-1219.847,253.657 -1219.847,211.663 "/>
<polygon fill="#CC202F" points="-1260.345,879.125 -1563.335,879.125 -1563.335,777.137 -1515.337,777.137 -1515.337,631.644 
	-1634.576,631.644 -1634.576,588.143 -1599.333,588.143 -1599.333,545.184 -1179.269,547.642 -1179.349,631.638 -1261.845,631.638 
	-1261.845,670.636 -1300.843,670.636 -1300.843,796.634 -1263.345,796.634 "/>
<polygon fill="#24225B" points="-1638.326,963.122 -1638.326,922.624 -1594.828,922.624 -1594.828,879.125 -1218.347,879.125 
	-1218.347,921.127 -1177.849,921.127 -1177.849,963.122 "/>
<g id="k4pyTQ.tif" display="none">
	
		<image display="inline" overflow="visible" width="1291" height="1292" id="Layer_0_2_" xlink:href="E5E7CF8055AF549C.png"  transform="matrix(1 0 0 1 -1926.4336 -203.4409)">
	</image>
</g>
<polygon fill="#282A70" points="-1174.85,211.663 -1219.847,211.663 -1219.847,253.657 -1260.345,253.657 -1260.345,294.155 
	-1342.841,294.155 -1342.841,339.153 -1386.338,339.153 -1386.338,546.149 -1515.332,546.149 -1515.332,504.147 -1594.828,504.147 
	-1594.828,463.649 -1680.324,463.649 -1680.324,420.149 -1639.826,420.149 -1639.826,378.151 -1677.324,378.151 -1677.324,252.157 
	-1642.826,252.157 -1642.826,171.161 -1594.828,171.161 -1594.828,127.664 -1512.333,127.664 -1512.333,85.669 -1305.343,85.669 
	-1304.934,124.664 -1174.85,124.664 "/>
<polygon fill="#FFFFFF" points="-1342.841,462.147 -1342.841,339.153 -1302.343,339.153 -1302.343,294.155 -1218.347,294.155 
	-1218.347,462.147 "/>
<rect x="-1260.345" y="336.153" width="41.998" height="83.996"/>
<rect x="-1470.334" y="879.125" fill="#1E1E1E" width="42.748" height="83.996"/>
<rect x="-1386.838" y="879.125" fill="#1E1E1E" width="42.748" height="83.996"/>
<rect x="-1427.587" y="838.627" fill="#1E1E1E" width="39.749" height="40.498"/>
<rect x="-1133.101" y="421.559" fill="#1E1E1E" width="39.248" height="82.667"/>
<rect x="-1634.576" y="670.892" fill="#E9CE9A" width="119.239" height="83.333"/>
<rect x="-1634.576" y="631.644" fill="#C38C2C" width="119.239" height="39.248"/>
<rect x="-1174.85" y="211.663" fill="#282A70" width="37.499" height="88.492"/>
<rect x="-1427.587" y="879.125" width="39.749" height="87"/>
<polygon fill="#E9CE9A" points="-1511.766,211.663 -1511.766,255.909 -1552.433,255.909 -1552.433,421.559 -1511.766,421.559 
	-1511.766,462.147 -1468.433,462.147 -1468.433,504.226 -1427.587,504.226 -1427.587,296.893 -1385.099,296.893 -1385.099,255.909 
	-1427.587,255.909 -1427.587,211.663 "/>
<rect x="-1261.767" y="700.892" fill="#E9CE9A" width="88.916" height="83.333"/>
<rect x="-1261.845" y="661.644" fill="#C38C2C" width="88.821" height="39.248"/>
<rect x="-1468.766" y="255.909" fill="#282A70" width="41.179" height="40.984"/>
<rect x="-1468.766" y="420.149" fill="#282A70" width="41.179" height="41.998"/>
<rect x="-1509.766" y="296.893" fill="#282A70" width="41" height="123.256"/>
<rect x="-1594.83" y="588.143" fill="#C38C2C" width="42.397" height="43.501"/>
<polygon fill="#C38C2C" points="-1552.433,545.458 -1552.433,588.143 -1470.334,588.143 -1470.334,546.149 "/>
<rect x="-1179.269" y="546.149" fill="#1E1E1E" width="42.918" height="42.744"/>
<rect x="-1179.269" y="628.642" fill="#1E1E1E" width="46.418" height="33.002"/>
<line fill="#C38C2C" x1="-1261.845" y1="631.638" x2="-1261.845" y2="670.636"/>
<polygon fill="#1E1E1E" points="580.473,953.951 580.473,874.456 544.474,874.456 544.474,832.458 500.977,832.458 500.977,749.961 
	540.725,749.961 540.725,707.963 580.473,707.963 580.473,539.972 540.725,539.972 540.725,496.559 500.977,497.04 500.977,455.976 
	580.473,455.976 580.473,415.478 622.47,415.478 622.47,373.48 584.972,373.48 584.972,332.982 622.47,332.982 622.47,206.99 
	583.473,206.99 583.082,122.888 542.914,122.99 542.975,83.996 500.977,83.996 500.977,40.498 418.48,40.498 418.48,0 211.49,0 
	211.49,37.498 85.496,37.498 85.496,76.493 42.541,76.722 41.998,163.492 0,166.492 0,248.988 35.998,248.988 38.998,371.981 
	38.998,580.471 85.496,580.471 83.996,623.969 166.957,623.969 167.992,748.463 122.994,748.463 124.494,830.958 85.496,830.958 
	85.496,872.957 41.998,872.957 41.998,953.951 245.988,953.951 245.988,917.955 374.982,917.955 374.982,953.951 "/>
<polygon display="none" fill="#E9CE9A" points="211.49,37.498 418.48,37.498 418.48,79.493 500.977,79.493 500.977,122.99 
	544.475,122.99 544.475,203.986 583.473,203.986 583.473,329.98 545.974,329.98 545.974,371.978 584.972,371.978 584.972,415.478 
	500.977,415.478 500.977,455.976 421.48,455.976 421.48,499.471 500.977,499.471 500.977,539.969 540.725,539.969 540.725,707.963 
	419.98,707.963 419.98,748.459 455.979,748.459 455.979,830.955 500.977,830.955 500.977,874.453 544.474,874.453 544.474,914.951 
	83.996,914.951 83.996,872.957 124.494,872.957 124.494,832.455 169.492,832.455 169.492,748.463 206.99,748.463 206.99,622.465 
	167.992,622.465 167.992,583.467 85.496,583.467 85.496,539.969 43.498,539.969 43.498,499.471 85.42,499.471 85.582,457.474 
	43.498,457.474 43.498,377.977 80.998,377.977 80.998,251.984 43.498,251.984 43.498,163.492 80.998,163.492 80.998,80.996 
	211.332,80.996 "/>
<polygon fill="#E9CE9A" points="80.998,163.492 80.998,377.977 43.498,377.977 43.498,457.474 85.582,457.474 85.582,499.47 
	292.486,499.47 292.486,290.982 248.988,290.982 248.988,245.984 166.899,244.893 166.899,205.486 125.994,205.486 125.994,163.492 
	"/>
<polygon fill="#C0BC31" points="167.566,830.955 469.482,830.955 469.482,728.966 421.484,728.966 421.484,583.473 540.725,583.473 
	540.725,539.972 505.48,539.972 505.48,497.013 85.416,499.471 85.496,583.467 167.992,583.467 167.992,622.465 206.99,622.465 
	206.99,748.463 167.992,748.463 "/>
<rect x="107.066" y="231.559" fill="none" stroke="#000000" stroke-width="11" stroke-miterlimit="10" width="160" height="197"/>
<polygon fill="#9B1B2C" points="544.474,914.951 544.474,874.453 500.977,874.453 500.977,830.955 124.494,830.955 124.494,872.957 
	83.996,872.957 83.996,914.951 "/>
<polygon fill="#CC1F38" points="80.998,163.492 125.994,163.492 125.994,205.486 166.492,205.486 166.492,245.984 248.988,245.984 
	248.988,290.982 292.486,290.982 292.486,497.978 421.48,497.978 421.48,455.976 500.977,455.976 500.977,415.478 586.472,415.478 
	586.472,371.978 545.974,371.978 545.974,329.98 583.473,329.98 583.473,203.986 548.974,203.986 548.974,122.99 500.977,122.99 
	500.977,79.493 418.48,79.493 418.48,37.498 211.49,37.498 211.082,76.493 80.998,76.493 "/>
<polygon fill="#FFFFFF" points="248.988,413.976 248.988,290.982 208.49,290.982 208.49,245.984 124.494,245.984 124.494,413.976 
	"/>
<rect x="124.494" y="287.982" width="41.998" height="83.996"/>
<rect x="333.734" y="830.955" fill="#1E1E1E" width="42.748" height="83.996"/>
<rect x="251.238" y="830.955" fill="#1E1E1E" width="42.748" height="83.996"/>
<rect x="293.986" y="790.457" fill="#1E1E1E" width="39.748" height="40.498"/>
<rect y="373.388" fill="#1E1E1E" width="39.248" height="82.667"/>
<rect x="421.484" y="622.721" fill="#E9CE9A" width="119.24" height="83.333"/>
<rect x="421.484" y="583.473" fill="#4C61AC" width="119.24" height="39.248"/>
<rect x="43.498" y="163.492" fill="#CC1F38" width="37.5" height="88.492"/>
<rect x="293.986" y="830.955" width="39.748" height="83.996"/>
<polygon fill="#E9CE9A" points="417.914,163.492 417.914,207.738 458.58,207.738 458.58,373.388 417.914,373.388 417.914,413.976 
	374.58,413.976 374.58,456.055 333.734,456.055 333.734,248.722 291.248,248.722 291.248,207.738 333.734,207.738 333.734,163.492 
	"/>
<rect x="78.998" y="652.721" fill="#E9CE9A" width="88.916" height="83.333"/>
<rect x="79.172" y="613.473" fill="#4C61AC" width="88.82" height="39.248"/>
<rect x="333.734" y="207.738" fill="#CC1F38" width="41.18" height="40.984"/>
<rect x="333.734" y="371.978" fill="#CC1F38" width="41.18" height="41.998"/>
<rect x="374.914" y="248.722" fill="#CC1F38" width="41" height="123.256"/>
<rect x="458.58" y="539.972" fill="#4C61AC" width="42.397" height="43.501"/>
<polygon fill="#4C61AC" points="458.58,497.287 458.58,539.972 376.482,539.972 376.482,497.978 "/>
<rect x="42.498" y="497.978" fill="#1E1E1E" width="42.918" height="42.744"/>
<rect x="38.998" y="580.471" fill="#1E1E1E" width="46.418" height="33.002"/>
<line fill="#C38C2C" x1="167.992" y1="583.467" x2="167.992" y2="622.465"/>
<polyline points="85.105,377.977 105.566,377.977 105.566,364.309 80.998,364.309 80.998,377.977 105.566,377.977 "/>
<path d="M80.998,163.492"/>
</svg>
