<?xml version="1.0" encoding="utf-8"?>
<!-- Generator: Adobe Illustrator 16.0.0, SVG Export Plug-In . SVG Version: 6.00 Build 0)  -->
<!DOCTYPE svg PUBLIC "-//W3C//DTD SVG 1.1//EN" "http://www.w3.org/Graphics/SVG/1.1/DTD/svg11.dtd">
<svg version="1.1" id="Layer_1" xmlns="http://www.w3.org/2000/svg" xmlns:xlink="http://www.w3.org/1999/xlink" x="0px" y="0px"
	 width="622.469px" height="953.951px" viewBox="0 0 622.469 953.951" enable-background="new 0 0 622.469 953.951"
	 xml:space="preserve">
<polygon fill="#1E1E1E" points="41.998,953.951 41.998,874.456 77.996,874.456 77.996,832.458 121.494,832.458 121.494,749.961 
	81.746,749.961 81.746,707.963 41.998,707.963 41.998,539.972 81.746,539.972 81.746,499.474 121.494,499.474 121.494,455.976 
	41.998,455.976 41.998,415.478 0,415.478 0,373.48 37.498,373.48 37.498,332.982 0,332.982 0,206.99 38.998,206.99 39.388,122.888 
	79.555,122.99 79.496,83.996 121.494,83.996 121.494,40.498 203.989,40.498 203.989,0 410.979,0 410.979,37.498 536.973,37.498 
	536.973,76.493 579.929,76.722 580.471,163.492 622.469,166.492 622.469,248.988 586.471,248.988 583.471,371.981 583.471,580.471 
	536.973,580.471 538.473,623.969 455.513,623.969 454.477,748.463 499.475,748.463 497.975,830.958 536.973,830.958 
	536.973,872.957 580.471,872.957 580.471,953.951 376.481,953.951 376.481,917.955 247.487,917.955 247.487,953.951 "/>
<polygon display="none" fill="#E9CE9A" points="410.979,37.498 203.989,37.498 203.989,79.493 121.494,79.493 121.494,122.99 
	77.996,122.99 77.996,203.986 38.998,203.986 38.998,329.98 76.496,329.98 76.496,371.978 37.498,371.978 37.498,415.478 
	121.494,415.478 121.494,455.976 200.99,455.976 200.99,499.471 121.494,499.471 121.494,539.969 81.746,539.969 81.746,707.963 
	202.49,707.963 202.49,748.459 166.491,748.459 166.491,830.955 121.494,830.955 121.494,874.453 77.996,874.453 77.996,914.951 
	538.473,914.951 538.473,872.957 497.975,872.957 497.975,832.455 452.977,832.455 452.977,748.463 415.479,748.463 
	415.479,622.465 454.477,622.465 454.477,583.467 536.973,583.467 536.973,539.969 578.971,539.969 578.971,499.471 
	537.049,499.471 536.888,457.474 578.971,457.474 578.971,377.978 541.472,377.978 541.472,251.984 578.971,251.984 
	578.971,163.492 541.472,163.492 541.472,80.996 411.138,80.996 "/>
<polygon fill="#E9CE9A" points="541.472,163.492 541.472,377.978 578.971,377.978 578.971,457.474 536.888,457.474 536.888,497.978 
	329.983,497.978 329.983,290.982 373.481,290.982 373.481,245.984 455.974,245.984 455.974,205.486 496.475,205.486 
	496.475,163.492 "/>
<polygon fill="#CC202F" points="455.977,830.955 152.987,830.955 152.987,728.966 200.985,728.966 200.985,583.473 81.746,583.473 
	81.746,539.972 116.989,539.972 116.989,497.013 537.053,499.471 536.973,583.467 454.477,583.467 454.477,622.465 415.479,622.465 
	415.479,748.463 452.977,748.463 "/>
<polygon fill="#24225B" points="77.996,914.951 77.996,874.453 121.494,874.453 121.494,830.955 497.975,830.955 497.975,872.957 
	538.473,872.957 538.473,914.951 "/>
<g id="k4pyTQ.tif" display="none">
	
		<image display="inline" overflow="visible" width="1291" height="1292" id="Layer_0_2_" xlink:href="8CD29C234D8BB773.png"  transform="matrix(1 0 0 1 -210.1118 -251.6118)">
	</image>
</g>
<polygon fill="#282A70" points="541.472,163.492 496.475,163.492 496.475,205.486 455.977,205.486 455.977,245.984 373.481,245.984 
	373.481,290.982 329.983,290.982 329.983,497.978 200.99,497.978 200.99,455.976 121.494,455.976 121.494,415.478 35.998,415.478 
	35.998,371.978 76.496,371.978 76.496,329.98 38.998,329.98 38.998,203.986 73.496,203.986 73.496,122.99 121.494,122.99 
	121.494,79.493 203.989,79.493 203.989,37.498 410.979,37.498 411.388,76.493 541.472,76.493 "/>
<polygon fill="#FFFFFF" points="373.481,413.976 373.481,290.982 413.979,290.982 413.979,245.984 497.975,245.984 497.975,413.976 
	"/>
<rect x="455.977" y="287.982" width="41.998" height="83.996"/>
<rect x="245.987" y="830.955" fill="#1E1E1E" width="42.748" height="83.996"/>
<rect x="329.483" y="830.955" fill="#1E1E1E" width="42.748" height="83.996"/>
<rect x="288.735" y="790.457" fill="#1E1E1E" width="39.749" height="40.498"/>
<rect x="583.221" y="373.388" fill="#1E1E1E" width="39.248" height="82.667"/>
<rect x="81.746" y="622.721" fill="#E9CE9A" width="119.239" height="83.333"/>
<rect x="81.746" y="583.473" fill="#C38C2C" width="119.239" height="39.248"/>
<rect x="541.472" y="163.492" fill="#282A70" width="37.499" height="88.492"/>
<rect x="288.735" y="830.955" width="39.749" height="87"/>
<polygon fill="#E9CE9A" points="204.556,163.492 204.556,207.738 163.889,207.738 163.889,373.388 204.556,373.388 204.556,413.976 
	247.889,413.976 247.889,456.055 288.735,456.055 288.735,248.722 331.223,248.722 331.223,207.738 288.735,207.738 
	288.735,163.492 "/>
<rect x="454.555" y="652.721" fill="#E9CE9A" width="88.916" height="83.333"/>
<rect x="454.477" y="613.473" fill="#C38C2C" width="88.821" height="39.248"/>
<rect x="247.556" y="207.738" fill="#282A70" width="41.179" height="40.984"/>
<rect x="247.556" y="371.978" fill="#282A70" width="41.179" height="41.998"/>
<rect x="206.556" y="248.722" fill="#282A70" width="41" height="123.256"/>
<rect x="121.492" y="539.972" fill="#C38C2C" width="42.397" height="43.501"/>
<polygon fill="#C38C2C" points="163.889,497.287 163.889,539.972 245.987,539.972 245.987,497.978 "/>
<rect x="537.053" y="497.978" fill="#1E1E1E" width="42.918" height="42.744"/>
<rect x="537.053" y="580.471" fill="#1E1E1E" width="46.418" height="33.002"/>
<line fill="#C38C2C" x1="454.477" y1="583.467" x2="454.477" y2="622.465"/>
<polygon fill="#1E1E1E" points="2296.794,905.78 2296.794,826.285 2260.795,826.285 2260.795,784.287 2217.298,784.287 
	2217.298,701.791 2257.046,701.791 2257.046,659.792 2296.794,659.792 2296.794,491.801 2257.046,491.801 2257.046,448.388 
	2217.298,448.869 2217.298,407.805 2296.794,407.805 2296.794,367.307 2338.792,367.307 2338.792,325.309 2301.293,325.309 
	2301.293,284.812 2338.792,284.812 2338.792,158.819 2299.794,158.819 2299.404,74.717 2259.236,74.819 2259.296,35.825 
	2217.298,35.825 2217.298,-7.673 2134.802,-7.673 2134.802,-48.171 1927.812,-48.171 1927.812,-10.673 1801.818,-10.673 
	1801.818,28.322 1758.863,28.551 1758.32,115.321 1716.322,118.321 1716.322,200.817 1752.32,200.817 1755.32,323.81 1755.32,532.3 
	1801.818,532.3 1800.318,575.798 1883.279,575.798 1884.314,700.292 1839.316,700.292 1840.816,782.788 1801.818,782.788 
	1801.818,824.786 1758.32,824.786 1758.32,905.78 1962.31,905.78 1962.31,869.784 2091.304,869.784 2091.304,905.78 "/>
<polygon display="none" fill="#E9CE9A" points="1927.812,-10.673 2134.802,-10.673 2134.802,31.322 2217.298,31.322 
	2217.298,74.819 2260.796,74.819 2260.796,155.815 2299.794,155.815 2299.794,281.809 2262.295,281.809 2262.295,323.807 
	2301.293,323.807 2301.293,367.307 2217.298,367.307 2217.298,407.805 2137.802,407.805 2137.802,451.3 2217.298,451.3 
	2217.298,491.798 2257.046,491.798 2257.046,659.792 2136.302,659.792 2136.302,700.289 2172.3,700.289 2172.3,782.784 
	2217.298,782.784 2217.298,826.282 2260.795,826.282 2260.795,866.78 1800.318,866.78 1800.318,824.786 1840.816,824.786 
	1840.816,784.284 1885.814,784.284 1885.814,700.292 1923.312,700.292 1923.312,574.294 1884.314,574.294 1884.314,535.296 
	1801.818,535.296 1801.818,491.798 1759.82,491.798 1759.82,451.3 1801.742,451.3 1801.904,409.303 1759.82,409.303 
	1759.82,329.806 1797.32,329.806 1797.32,203.813 1759.82,203.813 1759.82,115.321 1797.32,115.321 1797.32,32.825 1927.654,32.825 
	"/>
<polygon fill="#E9CE9A" points="1797.32,115.321 1797.32,329.806 1759.82,329.806 1759.82,409.303 1801.904,409.303 
	1801.904,451.299 2008.808,451.299 2008.808,242.811 1965.31,242.811 1965.31,197.813 1883.221,196.722 1883.221,157.315 
	1842.316,157.315 1842.316,115.321 "/>
<polygon fill="#C0BC31" points="1883.888,782.784 2185.804,782.784 2185.804,680.795 2137.806,680.795 2137.806,535.302 
	2257.046,535.302 2257.046,491.801 2221.802,491.801 2221.802,448.842 1801.738,451.3 1801.818,535.296 1884.314,535.296 
	1884.314,574.294 1923.312,574.294 1923.312,700.292 1884.314,700.292 "/>
<rect x="1823.388" y="183.388" fill="none" stroke="#000000" stroke-width="11" stroke-miterlimit="10" width="160" height="197"/>
<polygon fill="#9B1B2C" points="2260.795,866.78 2260.795,826.282 2217.298,826.282 2217.298,782.784 1840.816,782.784 
	1840.816,824.786 1800.318,824.786 1800.318,866.78 "/>
<polygon fill="#CC1F38" points="1797.32,115.321 1842.316,115.321 1842.316,157.315 1882.814,157.315 1882.814,197.813 
	1965.31,197.813 1965.31,242.811 2008.808,242.811 2008.808,449.807 2137.802,449.807 2137.802,407.805 2217.298,407.805 
	2217.298,367.307 2302.793,367.307 2302.793,323.807 2262.295,323.807 2262.295,281.809 2299.794,281.809 2299.794,155.815 
	2265.295,155.815 2265.295,74.819 2217.298,74.819 2217.298,31.322 2134.802,31.322 2134.802,-10.673 1927.812,-10.673 
	1927.404,28.322 1797.32,28.322 "/>
<polygon fill="#FFFFFF" points="1965.31,365.805 1965.31,242.811 1924.812,242.811 1924.812,197.813 1840.816,197.813 
	1840.816,365.805 "/>
<rect x="1840.816" y="239.811" width="41.998" height="83.996"/>
<rect x="2050.056" y="782.784" fill="#1E1E1E" width="42.748" height="83.996"/>
<rect x="1967.56" y="782.784" fill="#1E1E1E" width="42.748" height="83.996"/>
<rect x="2010.308" y="742.286" fill="#1E1E1E" width="39.748" height="40.498"/>
<rect x="1716.322" y="325.217" fill="#1E1E1E" width="39.248" height="82.667"/>
<rect x="2137.806" y="574.55" fill="#E9CE9A" width="119.24" height="83.333"/>
<rect x="2137.806" y="535.302" fill="#4C61AC" width="119.24" height="39.248"/>
<rect x="1759.82" y="115.321" fill="#CC1F38" width="37.5" height="88.492"/>
<rect x="2010.308" y="782.784" width="39.748" height="83.996"/>
<polygon fill="#E9CE9A" points="2134.236,115.321 2134.236,159.567 2174.902,159.567 2174.902,325.217 2134.236,325.217 
	2134.236,365.805 2090.902,365.805 2090.902,407.884 2050.056,407.884 2050.056,200.551 2007.57,200.551 2007.57,159.567 
	2050.056,159.567 2050.056,115.321 "/>
<rect x="1795.32" y="604.55" fill="#E9CE9A" width="88.916" height="83.333"/>
<rect x="1795.494" y="565.302" fill="#4C61AC" width="88.82" height="39.248"/>
<rect x="2050.056" y="159.567" fill="#CC1F38" width="41.18" height="40.984"/>
<rect x="2050.056" y="323.807" fill="#CC1F38" width="41.18" height="41.998"/>
<rect x="2091.236" y="200.551" fill="#CC1F38" width="41" height="123.256"/>
<rect x="2174.902" y="491.801" fill="#4C61AC" width="42.397" height="43.501"/>
<polygon fill="#4C61AC" points="2174.902,449.116 2174.902,491.801 2092.804,491.801 2092.804,449.807 "/>
<rect x="1758.82" y="449.807" fill="#1E1E1E" width="42.918" height="42.744"/>
<rect x="1755.32" y="532.3" fill="#1E1E1E" width="46.418" height="33.002"/>
<line fill="#C38C2C" x1="1884.314" y1="535.296" x2="1884.314" y2="574.294"/>
<polyline points="1801.427,329.806 1821.888,329.806 1821.888,316.138 1797.32,316.138 1797.32,329.806 1821.888,329.806 "/>
<path d="M1797.32,115.321"/>
</svg>
